# xmcd
#
# Track frame offsets: 
#        150
#        17691
#        58090
#        76335
#        93449
#        117462
#        136692
#        156411
#        183891
#        223899
#
# Disc length: 4080 seconds
#
# Revision: 0
# Processed by: cddbd v1.5.2PL0 Copyright (c) Steve Scherf et al.
# Submitted via: ExactAudioCopy v1.0b3
#
DISCID=850fee0a
DTITLE=Cutinella and Chapital  - A Contra Reloj
DYEAR=2013
DGENRE=Blues
TTITLE0=Mas barato
TTITLE1=Debo
TTITLE2=Bye Bye Buenos Aires
TTITLE3=Es tarde
TTITLE4=Nada es por nada
TTITLE5=No me vengas
TTITLE6=Solo 3 horas
TTITLE7=Doy todo de mi
TTITLE8=Buscando
TTITLE9=A contra reloj
EXTD=
EXTT0=
EXTT1=
EXTT2=
EXTT3=
EXTT4=
EXTT5=
EXTT6=
EXTT7=
EXTT8=
EXTT9=
PLAYORDER=
